<?xml version="1.0" encoding="UTF-8" standalone="no"?>
<svg
   version="1.1"
   width="26.8801pt"
   height="26.8801pt"
   id="svg17"
   viewBox="0 0 26.8801 26.8801"
   sodipodi:docname="4pda_logo.cdr"
   xmlns:inkscape="http://www.inkscape.org/namespaces/inkscape"
   xmlns:sodipodi="http://sodipodi.sourceforge.net/DTD/sodipodi-0.dtd"
   xmlns="http://www.w3.org/2000/svg"
   xmlns:svg="http://www.w3.org/2000/svg">
  <defs
     id="defs21" />
  <sodipodi:namedview
     id="namedview19"
     pagecolor="#ffffff"
     bordercolor="#000000"
     borderopacity="0.25"
     inkscape:showpageshadow="2"
     inkscape:pageopacity="0.0"
     inkscape:pagecheckerboard="0"
     inkscape:deskcolor="#d1d1d1"
     inkscape:document-units="pt" />
  <path
     d="M 1e-4,1e-4 V 26.88 H 26.88 V 1e-4 Z"
     style="fill:#ffffff;fill-rule:evenodd"
     id="path2" />
  <g
     id="Layer1000">
    <path
       d="M 4.4367,11.5151 2.5139,14.13 h 1.9228 z"
       style="fill:#14a5f4;fill-rule:evenodd"
       id="path4" />
    <path
       d="M 0,17.2451 H 4.4367 V 16.3914 H 0 Z"
       style="fill:#14a5f4;fill-rule:evenodd"
       id="path6" />
    <path
       d="m 0,9.635 v 4.0837 L 2.995,9.635 Z"
       style="fill:#14a5f4;fill-rule:evenodd"
       id="path8" />
    <path
       d="m 20.8735,9.6799 -0.5279,1.4842 c 0.5094,0.8762 0.5816,1.8297 0.5816,2.2901 0,1.5012 -0.6503,3.0793 -2.3439,3.7743 h 2.7001 l 0.3018,-1.0997 h 1.898 l 0.3019,1.0997 h 3.095 L 24.1946,9.6799 Z m 1.1321,4.5615 0.5286,-1.9196 0.5283,1.9196 z"
       style="fill:#4474c4;fill-rule:evenodd"
       id="path10" />
    <path
       d="m 16.529,9.6799 h -3.5157 v 0.0727 c 1.0172,0.5571 1.4181,1.5635 1.4181,2.5263 0,0.966 -0.4009,1.976 -1.4181,2.5352 v 2.4144 h 3.5157 c 2.8146,0 4.0332,-1.7468 4.0332,-3.7743 0,-1.6931 -0.809,-3.7743 -4.0332,-3.7743 z m -0.2587,5.3596 h -0.2375 v -3.1706 h 0.2375 c 0.8409,0 1.4234,0.4962 1.4234,1.5853 0,1.499 -1.0676,1.5853 -1.4234,1.5853 z"
       style="fill:#4474c4;fill-rule:evenodd"
       id="path12" />
    <path
       d="m 7.3043,9.6799 h 3.7535 c 2.4048,0 3.0086,1.5205 3.0086,2.599 0,1.089 -0.6146,2.6096 -3.0086,2.6096 H 10.141 v 2.34 H 7.3043 Z m 2.8367,3.2459 h 0.3344 c 0.6039,0 0.7225,-0.345 0.7225,-0.6469 0,-0.604 -0.4745,-0.6363 -0.7225,-0.6363 H 10.141 Z"
       style="fill:#4474c4;fill-rule:evenodd"
       id="path14" />
  </g>
</svg>
