<svg width="808" height="808" viewBox="0 0 808 808" fill="none" xmlns="http://www.w3.org/2000/svg">
<path d="M534.358 138C422.995 138 332.717 228.14 332.717 339.333V345.657C332.717 382.764 321.153 421.568 290.35 442.328L204.493 500.191C169.698 523.642 160.53 570.816 184.017 605.558C207.503 640.3 254.75 649.454 289.545 626.003L394.813 555.058C423.143 535.965 459.416 535.738 492.871 542.724C506.26 545.52 520.137 546.99 534.358 546.99C645.722 546.99 736 456.85 736 345.657V339.333C736 228.14 645.722 138 534.358 138Z" fill="#F2E36E"/>
<path fill-rule="evenodd" clip-rule="evenodd" d="M340.865 238.447C323.897 238.447 310.142 224.692 310.142 207.724V192.5C310.142 183.94 303.202 177 294.642 177V177C286.081 177 279.142 183.94 279.142 192.5L279.142 257.268C278.954 258.915 278.951 260.583 279.142 262.233L279.142 541.052C279.142 547.304 274.073 552.373 267.821 552.373V552.373C261.569 552.373 256.5 557.441 256.5 563.693V567.873C256.5 576.433 263.44 583.373 272 583.373H479.935C521.08 583.373 554.435 550.018 554.435 508.873V508.873C554.435 505.309 557.328 502.421 560.892 502.429L586.609 502.482C595.17 502.5 602.124 495.575 602.142 487.015V487.015C602.159 478.454 595.234 471.5 586.674 471.482L576.24 471.461C564.19 471.436 554.435 461.66 554.435 449.61V449.61C554.435 437.415 564.417 427.58 576.611 427.762L612.411 428.297C620.971 428.425 628.013 421.589 628.141 413.03V413.03C628.269 404.47 621.434 397.428 612.874 397.3L586.942 396.913C568.911 396.644 554.435 381.95 554.435 363.917V312.947C554.435 271.802 521.08 238.447 479.935 238.447H445.642H340.865ZM343.142 427.5C324.916 427.5 310.142 442.275 310.142 460.5L310.142 519.373C310.142 537.598 324.916 552.373 343.142 552.373H479.935C503.959 552.373 523.435 532.897 523.435 508.873V445.535C523.435 435.236 515.167 426.844 504.87 426.691L501.524 426.641C492.965 426.513 486.129 419.47 486.257 410.911L486.353 404.532C486.428 399.495 490.571 395.474 495.608 395.549V395.549C502.74 395.655 507.228 387.902 503.584 381.77L446.416 285.587C440.468 275.58 429.689 269.447 418.048 269.447H343.142C324.916 269.447 310.142 284.222 310.142 302.447L310.142 363.5C310.142 381.725 324.916 396.5 343.142 396.5H364.235C372.796 396.5 379.735 403.44 379.735 412V412C379.735 420.56 372.796 427.5 364.235 427.5H343.142ZM479.935 269.447C476.825 269.447 474.898 272.834 476.487 275.507L502.207 318.78C508.135 328.753 523.435 324.55 523.435 312.947V312.947C523.435 288.923 503.959 269.447 479.935 269.447V269.447Z" fill="#141414"/>
</svg>
